<?xml version="1.0" encoding="utf-8" standalone="no"?>
<svg
  xmlns="http://www.w3.org/2000/svg"
  xmlns:xlink="http://www.w3.org/1999/xlink"
  width="1280px"
  height="640px"
  viewBox="0 0 1280 640"
   >
 <title>DS100 Social media card</title>
 <metadata>
  <rdf:RDF xmlns:rdf="http://www.w3.org/1999/02/22-rdf-syntax-ns#"
           xmlns:rdfs="http://www.w3.org/2000/01/rdf-schema#"
           xmlns:dc="http://purl.org/dc/elements/1.1/">
   <rdf:Description>
    <dc:creator><![CDATA[Bjørn Bäuchle <ds100 minus bot at frankfurtium dot de>]]></dc:creator>
    <dc:identifier></dc:identifier>
    <dc:relation></dc:relation>
    <dc:rights>© Bjørn Bäuchle CC-0 4.0</dc:rights>
    <dc:format>image/svg+xml</dc:format>
    <dc:type>Image</dc:type>
    <dc:title>DS100</dc:title>
    <dc:date>2021-02-28</dc:date>
   </rdf:Description>
  </rdf:RDF>
 </metadata>
 <style type="text/css"><![CDATA[
  .marker path {
    stroke:black;
    stroke-width:2px;
    stroke-dasharray: 1 1;
  }
  path#stiel { stroke: #646464; stroke-width: 10; }
  path#rahmen { stroke: red; fill: white; stroke-width: 5; stroke-linejoin: round; }
  text { fill: black; stroke: none; font-family: Helvetica; }
  #avatar text {
    font-size: 30pt;
    font-weight: bold;
  }
  #headline text {
    font-size: 72pt;
    font-weight: bold;
    font-variant: small-caps;
  }
  #sources text {
    fill: #c0c0c0;
    font-size: 24pt;
  }
 ]]>
 </style>
 <g class="marker" display="none">
  <path d="M 80,0 v 640" />
  <path d="M 640,0 v 640" />
  <path d="M 1200,0 v 640" />
  <path d="M 0,80 h 1280" />
  <path d="M 0,320 h 1280" />
  <path d="M 0,560 h 1280" />
 </g>
 <g id="sources" transform="translate(-5,15) rotate(-26.565)">
  <text x="15" y="0">#</text>
  <text x="0" y="30">#AA Hamburg-Altona</text>
  <text x="-15" y="60">#ASAF Samoa FKK-Strand</text>
  <text x="-30" y="90">#FKW Kassel-Wilhelmshöhe</text>
  <text x="-45" y="120">#FFBS Frankfurt-Frankfurter Berg</text>
  <text x="-60" y="150">#DS:WLAN Langen #DS:</text>
  <text x="-75" y="180">#DS:DBL Blauenthal #FKNZH Kassel Heinri</text>
  <text x="-90" y="210">#XOBG Bergen #XOAD Åndalsnes</text>
  <text x="-105" y="240">#UEP Esperstadt (Kyffh) #UE_P Erfurt Personenbahnhof</text>
  <text x="-120" y="270">/IC37 Düsseldorf - Köln - Koblenz - Trier - Luxembourg</text>
  <text x="-135" y="300">/FFM:EEx Ebbelwei-Expreß: Zoo - Innenstadt - Hauptbahnhof - Festhalle/Messe - Hauptbahnhof - Südbahnhof - Lokalbahnhof - Zoo</text>
  <text x="-150" y="330">#AT:Sge St.Georgen a.d.Gusen #CH:DO Domodossola #UK</text>
  <text x="-165" y="360">#DD:LME Lise-Meitner-Straße #DK:Ar Aarhus #DK:Rf Rødby Færge</text>
  <text x="-180" y="390">#FFM:HD Heddernheim #FFM:NE Nieder-Eschbach #FR:PE Paris Est</text>
  <text x="-195" y="420">#HH:GM Gänsemarkt #IBNR:1033 Castrop-Rauxel Hbf #LP:B BERLIN = (innerhalb Ring + Lichtenberg)</text>
  <text x="-210" y="450">#NL:Hlm Haarlem #NO:BRG Bergen #NO:FM Flåm #NO:BOA Bolna #SE:Thn Trollhättan</text>
  <text x="-225" y="480">#UK:ACOCKSG Acocks Green #W:BA Babenbergerstraße - Museumsquartier #W:MA</text>
  <text x="-240" y="510">&amp;Betra Betriebs- und Bauanweisung &amp;BEU Bundesstelle für Eisenbahnunfalluntersuchung &amp;AVsig</text>
  <text x="-255" y="540">&amp;VKM:ACPR  Amicale des Cheminots pour Préservation de la 141 R 1126 &amp;VKM:NSB Norges Statsbaner BA</text>
  <text x="-270" y="570">%BOSTRAB:F1 Fahrt freigegeben nur geradeaus %BOSTRAB:A2 Abfahren %Ne2 Kennzeichnung des Standorts eines Vorsignals.</text>
  <text x="-230" y="600">%DV:Hl11 Geschwindigkeit 100 km/h ermäßigen, „Halt“ erwarten. %DV:Ra13 Kennzeichnung der Grenze der Gleisisolierung.</text>
  <text x="-170" y="630">%NO:35 Hovedlinjesignal $CH:855 St. Gallen AB - Gais - Appenzell $3906 Hofgeismar-Hümme - Karlshafen</text>
  <text x="-110" y="660">$FFM:AⅣ A-Strecke Teilabschnitt 4 Willy-Brandt-Platz - Südbahnhof $FFM:DⅣ D-Strecke Teilabschnitt 4: Nordweststadt - Riedberg - Kalbach</text>
  <text x="-50" y="690">$NO:15 Nordlandsbanen: Bodø - Fauske - Mo i Rana - Mosjøen - Grong $NO:9c Aker - Alnabru</text>
  <text x="10" y="720">/RMV:RE98 Frankfurt Hbf – Gießen – Kassel Hbf (HLB) /RMV:RB16 Friedberg (Hessen) – Friedrichsdorf (HLB)</text>
  <text x="70" y="750">#FAQ:ANTIGNOSE Der Vorhersagealgorithmus für Verspätungen der Deutschen Bahn. *Pro*gnose kann man das nämlich nicht nennen.</text>
  <text x="130" y="780">der Deutschen Bahn. *Pro*gnose kann man das nämlich nicht nennen.</text>
  <text x="190" y="810">nennen. #FAQ:KI Dieser Bot besitzt keine Künstliche Intelligenz. Er ist sozusagen strunzdumm. Lernen kann der Bot nur, indem der Autor lernt und etwas neues dazuprogrammiert.</text>
  <text x="250" y="840">enz. Er ist sozusagen strunzdumm. Lernen kann der Bot nur, indem der Autor lernt und etwas neues dazuprogrammiert.</text>
  <text x="310" y="870">Bot nur, indem der Autor lernt und etwas neues dazuprogrammiert.</text>
  <text x="370" y="900">dazuprogrammiert. #REKURSION Siehe bitte #REKURSION</text>
  <text x="430" y="930">Siehe bitte #REKURSION Hier könnte</text>
  <text x="490" y="960">Ihre Werbung nicht stehen #PEOPLE</text>
  <text x="550" y="990">Der echte Mensch hinter dem</text>
  <text x="610" y="1020">Bot ist @baeuchle. @</text>
  <text x="670" y="1050">fips_schneider hilft</text>
  <text x="730" y="1080">ft manchmal</text>
  <text x="790" y="1110">aus. Ende</text>
 </g>
 <g id="twitter_bird" transform="translate(300,100) scale(0.78125)">
  <path d="M256,25.4500259
    C246.58, 29.62 236.45, 32.45 225.83, 33.72
    C236.67, 27.21 245.00, 16.92 248.92,  4.66
    C238.77, 10.68 227.53, 15.05 215.57, 17.40
    C205.99,  7.20 192.34,  0.82 177.23,  0.82
    C148.23,  0.82 124.71, 24.33 124.71, 53.34
    C124.71, 57.45 125.18, 61.46 126.07, 65.31
    C 82.42, 63.12  43.72, 42.21  17.82, 10.43
    C  3.30, 18.19  10.71, 27.21  10.71, 36.84
    C 10.71, 55.06  19.98, 71.13  34.07, 80.55
    C 25.46, 80.28  17.36, 77.92  10.28, 73.98
    C 10.28, 74.20  10.28, 74.42  10.28, 74.64
    C 10.28,100.09  28.38,121.32  52.41,126.14
    C 48.00,127.34  43.36,127.98  38.57,127.98
    C 35.19,127.98  31.90,127.65  28.69,127.04
    C 35.37,147.91  54.77,163.09  77.75,163.52
    C 59.78,177.60  37.13,186.00  12.52,186.00
    C  8.28,186.00   4.10,185.75   0.00,185.27
    C 23.24,200.17  50.85,208.86  80.51,208.86
    C177.11,208.86 229.94,128.83 229.94, 59.43
    C229.94, 57.15 229.89, 54.89 229.79, 52.63
    C240.05, 45.23 248.95, 35.98 256.00, 25.45"
    fill="#55acee" />
 </g>
 <g id="avatar" transform="translate(80,320) scale(3) translate(0,-60)">
  <path id="stiel" d="M -20, 50 L 10, 50" />
  <path id="rahmen" d="M 3, 60 L 3,3 L 206,60 L 3,117 L 3,60" />
  <text x="10" y="74">DS 100</text>
 </g>
 <g id="headline">
  <text x="400" y="200">Bahn-Abkürzungen</text>
 </g>

</svg>
