<?xml version="1.0" encoding="utf-8" standalone="no"?>
<svg
  xmlns="http://www.w3.org/2000/svg"
  xmlns:xlink="http://www.w3.org/1999/xlink"
  width="1280px"
  height="640px"
  viewBox="0 0 1280 640"
   >
 <title>Ril100 Social media card</title>
 <metadata>
  <rdf:RDF xmlns:rdf="http://www.w3.org/1999/02/22-rdf-syntax-ns#"
           xmlns:rdfs="http://www.w3.org/2000/01/rdf-schema#"
           xmlns:dc="http://purl.org/dc/elements/1.1/">
   <rdf:Description>
    <dc:creator><![CDATA[Bjørn Bäuchle <ds100 minus bot at frankfurtium dot de>]]></dc:creator>
    <dc:identifier></dc:identifier>
    <dc:relation></dc:relation>
    <dc:rights>© Bjørn Bäuchle CC-0 4.0</dc:rights>
    <dc:format>image/svg+xml</dc:format>
    <dc:type>Image</dc:type>
    <dc:title>Ril100</dc:title>
    <dc:date>2024-11-24</dc:date>
   </rdf:Description>
  </rdf:RDF>
 </metadata>
 <style type="text/css"><![CDATA[
  .marker path {
    stroke:black;
    stroke-width:2px;
    stroke-dasharray: 1 1;
  }
  path#stiel { stroke: #646464; stroke-width: 10; }
  path#rahmen { stroke: red; fill: white; stroke-width: 5; stroke-linejoin: round; }
  text { fill: black; stroke: none; font-family: Helvetica; }
  #avatar text {
    font-size: 30pt;
    font-weight: bold;
  }
  #headline text {
    font-size: 72pt;
    font-weight: bold;
    font-variant: small-caps;
  }
  #sources text {
    fill: #55acee;
    font-size: 24pt;
  }
 ]]>
 </style>
    <defs>
      <path id="a" d="M395.89999 745.09998H690.5V1024.9H395.89999z"/>
    </defs>
    <clipPath id="b">
      <use xlink:href="#a" width="100%" height="100%" overflow="visible"/>
    </clipPath>
 <g class="marker" display="none">
  <path d="M 80,0 v 640" />
  <path d="M 640,0 v 640" />
  <path d="M 1200,0 v 640" />
  <path d="M 0,80 h 1280" />
  <path d="M 0,320 h 1280" />
  <path d="M 0,560 h 1280" />
 </g>
 <g id="sources" transform="translate(-5,15) rotate(-26.565)">
  <text x="15" y="0">#</text>
  <text x="0" y="30">#AA Hamburg-Altona</text>
  <text x="-15" y="60">#ASAF Samoa FKK-Strand</text>
  <text x="-30" y="90">#FKW Kassel-Wilhelmshöhe</text>
  <text x="-45" y="120">#FFBS Frankfurt-Frankfurter Berg</text>
  <text x="-60" y="150">#DS:WLAN Langen #DS:</text>
  <text x="-75" y="180">#DS:DBL Blauenthal #FKNZH Kassel Heinri</text>
  <text x="-90" y="210">#XOBG Bergen #XOAD Åndalsnes</text>
  <text x="-105" y="240">#UEP Esperstadt (Kyffh) #UE_P Erfurt Personenbahnhof</text>
  <text x="-120" y="270">/IC37 Düsseldorf - Köln - Koblenz - Trier - Luxembourg</text>
  <text x="-135" y="300">/FFM:EEx Ebbelwei-Expreß: Zoo - Innenstadt - Hauptbahnhof - Festhalle/Messe - Hauptbahnhof - Südbahnhof - Lokalbahnhof - Zoo</text>
  <text x="-150" y="330">#AT:Sge St.Georgen a.d.Gusen #CH:DO Domodossola #UK</text>
  <text x="-165" y="360">#DD:LME Lise-Meitner-Straße #DK:Ar Aarhus #DK:Rf Rødby Færge</text>
  <text x="-180" y="390">#FFM:HD Heddernheim #FFM:NE Nieder-Eschbach #FR:PE Paris Est</text>
  <text x="-195" y="420">#HH:GM Gänsemarkt #IBNR:1033 Castrop-Rauxel Hbf #LP:B BERLIN = (innerhalb Ring + Lichtenberg)</text>
  <text x="-210" y="450">#NL:Hlm Haarlem #NO:BRG Bergen #NO:FM Flåm #NO:BOA Bolna #SE:Thn Trollhättan</text>
  <text x="-225" y="480">#UK:ACOCKSG Acocks Green #W:BA Babenbergerstraße - Museumsquartier #W:MA</text>
  <text x="-240" y="510">&amp;Betra Betriebs- und Bauanweisung &amp;BEU Bundesstelle für Eisenbahnunfalluntersuchung &amp;AVsig</text>
  <text x="-255" y="540">&amp;VKM:ACPR  Amicale des Cheminots pour Préservation de la 141 R 1126 &amp;VKM:NSB Norges Statsbaner BA</text>
  <text x="-270" y="570">%BOSTRAB:F1 Fahrt freigegeben nur geradeaus %BOSTRAB:A2 Abfahren %Ne2 Kennzeichnung des Standorts eines Vorsignals.</text>
  <text x="-230" y="600">%DV:Hl11 Geschwindigkeit 100 km/h ermäßigen, „Halt“ erwarten. %DV:Ra13 Kennzeichnung der Grenze der Gleisisolierung.</text>
  <text x="-170" y="630">%NO:35 Hovedlinjesignal $CH:855 St. Gallen AB - Gais - Appenzell $3906 Hofgeismar-Hümme - Karlshafen</text>
  <text x="-110" y="660">$FFM:AⅣ A-Strecke Teilabschnitt 4 Willy-Brandt-Platz - Südbahnhof $FFM:DⅣ D-Strecke Teilabschnitt 4: Nordweststadt - Riedberg - Kalbach</text>
  <text x="-50" y="690">$NO:15 Nordlandsbanen: Bodø - Fauske - Mo i Rana - Mosjøen - Grong $NO:9c Aker - Alnabru</text>
  <text x="10" y="720">/RMV:RE98 Frankfurt Hbf – Gießen – Kassel Hbf (HLB) /RMV:RB16 Friedberg (Hessen) – Friedrichsdorf (HLB)</text>
  <text x="70" y="750">#FAQ:ANTIGNOSE Der Vorhersagealgorithmus für Verspätungen der Deutschen Bahn. *Pro*gnose kann man das nämlich nicht nennen.</text>
  <text x="130" y="780">der Deutschen Bahn. *Pro*gnose kann man das nämlich nicht nennen.</text>
  <text x="190" y="810">nennen. #FAQ:KI Dieser Bot besitzt keine Künstliche Intelligenz. Er ist sozusagen strunzdumm. Lernen kann der Bot nur, indem der Autor lernt und etwas neues dazuprogrammiert.</text>
  <text x="250" y="840">enz. Er ist sozusagen strunzdumm. Lernen kann der Bot nur, indem der Autor lernt und etwas neues dazuprogrammiert.</text>
  <text x="310" y="870">Bot nur, indem der Autor lernt und etwas neues dazuprogrammiert.</text>
  <text x="370" y="900">dazuprogrammiert. #REKURSION Siehe bitte #REKURSION</text>
  <text x="430" y="930">Siehe bitte #REKURSION Hier könnte</text>
  <text x="490" y="960">Ihre Werbung nicht stehen #PEOPLE</text>
  <text x="550" y="990">Der echte Mensch hinter dem</text>
  <text x="610" y="1020">Bot ist @baeuchle@chaos.social</text>
  <text x="670" y="1050">Zuhause bei zug.network</text>
  <text x="730" y="1080">ft manchmal</text>
  <text x="790" y="1110">aus. Ende</text>
 </g>
 <g id="mastodon" transform="rotate(-25) translate(-250,-630)">
   <path class="st53" d="M339.3 1028.6c1.5-3.2 14.4-31.3 27.4-58.8-6-9.3-2-17 1.5-23.7 1.9-3.7 3.8-7.1 3.6-10.4-.8-22 8.1-38.3 22.8-41.6 2.8-.6 5.2-.9 7.5-.9 3 0 5.6.5 8.1 1.6 1.4-1.3 2.8-2.6 4.2-3.8-2.8-2.6-4.3-5.5-4.5-8.8-.3-4.5 2.2-9.5 6.8-13.7 5.3-4.8 16.5-12.9 31.7-12.9.9 0 1.7 0 2.6.1-.4-.9-1-2-2.1-2.9-2.1-1.6-1.9-3.2-1.6-4 .7-2.1 3.6-3.2 8.1-3.2 3.9 0 9.7 1.2 14 4.4.3-.7.7-1.3 1.3-1.7.5-.3 1.3-.5 2.2-.5 3.4 0 10.6 2.7 15.5 9.9 3.6 5.3 3.6 10.8.1 16 18.3 4.7 30.1 15.6 39.5 24.4 2.5 2.4 5 4.6 7.3 6.5 10.7 8.9 21.4 13.2 32.7 13.2.9 0 1.8 0 2.7-.1 2-13.5-4.1-25.5-10-35.7-6.2-10.7-6.4-12.1-4.9-13.9l.1-.1c.6-.7 1.3-1 2.1-1.1h.3c1.7 0 4.5 1 13 8.7 9.9 9 16.9 22.2 19.2 36.5 8.9-4.9 15.2-12.5 17.1-20.3 2-8.6.5-16.8-4.2-22.7l-13.1 6.1-7-16.9-15.6 3.2 7.2-19.5h.1l-.2-.5 4.6-11.1 65.7 11.9c3.1.6 3.9 2.7 3.6 4.5l-.2 1-.4-.1c-.3.4-.6.7-1 .9-.7.3-7.5 3.6-21 9.9 2.1 2.9 2.2 6.1.4 9.4-1.1 1.9-2.5 6.2.4 13.3 3.7 8.9 3.5 29.2-8.3 46.2-8.1 11.7-18.3 23-37.6 26.6-3 4.6-6.5 9-10.2 12.6-7.8 7.6-24 15.3-42.3 15.3-5.3 0-10.7-.6-15.9-1.9-7.6 12.9-10.5 26.2-10.6 32.1-.2 11 .9 16.1.9 16.2l.4 1.8-164.9.8.9-2.3z" clip-path="url(#b)"/>
   <path class="st53" d="M339.8 1028.8c.1-.3 13.9-30.1 27.5-59.1-6.1-9.2-2.1-16.8 1.4-23.5 2-3.7 3.8-7.3 3.7-10.6-.8-21.7 8-37.9 22.4-41 2.7-.6 5.1-.9 7.4-.9 3 0 5.7.5 8.2 1.7 1.6-1.6 3.2-3 4.9-4.4-3-2.6-4.6-5.5-4.8-8.8-.3-4.4 2.1-9.2 6.6-13.3 5.3-4.8 16.4-12.8 31.4-12.8 1.1 0 2.2 0 3.3.1-.3-1.1-1-2.7-2.5-3.8-1.8-1.4-1.7-2.8-1.5-3.4.6-1.8 3.4-2.9 7.6-2.9 4.4 0 10.3 1.5 14.3 4.8.1-.9.6-1.7 1.3-2.1.4-.3 1.1-.4 1.9-.4 3.3 0 10.3 2.6 15.1 9.7 3.6 5.3 3.5 10.9-.3 16.1 18.6 4.6 30.5 15.6 40 24.4 2.6 2.4 5 4.6 7.3 6.5 10.8 8.9 21.6 13.3 33.1 13.3 1 0 2.1 0 3.1-.1 2.2-13.9-4-26.1-10-36.4-6.3-10.9-6.2-11.8-5-13.3l.1-.1c.2-.2.7-.9 1.8-.9h.2c1.5 0 4.2 1 12.7 8.6 10 9.1 17 22.5 19.2 36.9 9.3-5 16-12.8 17.9-20.9 2.1-8.9.4-17.4-4.5-23.4l-13 6.1-6.9-16.8-15.1 3.1 6.8-18.4h.6l-.5-1 4.4-10.6 65.3 11.8c3.5.7 3.3 3.2 3.2 3.9l-.1.5h-.2c-.2.4-.6.8-1 1-.7.3-7.9 3.7-21.6 10.2.1.1.2.2.3.4 2 2.7 2.2 5.8.4 8.9-1.1 2-2.6 6.4.4 13.7 3.6 8.8 3.4 28.8-8.2 45.7-8.1 11.7-18.2 22.9-37.5 26.4-3 4.7-6.5 9.1-10.3 12.7-7.8 7.5-23.7 15.1-42 15.1-5.4 0-10.9-.7-16.1-2-7.7 13.1-10.7 26.7-10.9 32.7-.2 11.1.9 16.2.9 16.3l.3 1.2-163.5.8.5-1.7z" clip-path="url(#b)"/>
   <path d="M577.5 843.7l-1-2.1 3.9-9.4 64.5 11.6c2.4.5 2.5 2 2.4 2.8" clip-path="url(#b)" stroke-miterlimit="10" fill="#fff" stroke="#000" stroke-linecap="round" stroke-linejoin="round"/>
   <path d="M584.2 856.7l6.9 16.6s53.7-25.1 55.5-26c.9-.5 1.5-2.2-1-2.3-2.5-.1-69.6-1.4-69.6-1.4l-5.9 16 14.1-2.9z" clip-path="url(#b)" stroke-miterlimit="10" fill="#fff" stroke="#000" stroke-width="1.70000005" stroke-linecap="round" stroke-linejoin="round"/>
   <path d="M585.1 857l58.9-11.2 1.4-.5h.4c.8 0 .7.3.8.6.1.3-.1.6-.4.8L587 861.5l-1.9-4.5z" clip-path="url(#b)" fill="#d1d3d4"/>
   <path class="st57" clip-path="url(#b)" stroke-miterlimit="10" d="M584.20001 856.70001l61.79999-11.5" fill="none" stroke="#000" stroke-linecap="round" stroke-linejoin="round"/>
   <path class="st58" d="M388.5 927.9c20-40 49.9-56.3 83.4-54.9 33.6 1.4 48.8 21.7 62.4 32.9 13.6 11.2 27.5 15.6 43.4 12.5 15.9-3.1 28.5-14.6 31.2-26.1 2.7-11.5-1-20.7-6.1-25.8-5.1-5.1-1.4-8.1 4.1-6.8 5.4 1.4 8.1 3.4 8.1 3.4s7.8-6.4 9.8-3.7c2 2.7 1.7 5.4.3 7.8-1.4 2.4-2.7 7.1.3 14.6 3.1 7.5 4.1 27.1-8.1 44.8-12.2 17.6-26.5 30.1-62.1 26.5-38.5-3.9-54.6 44.2-54.9 59-.2 11.5.9 16.5.9 16.5l-160.7.8c.2-.1 33.4-72.4 48-101.5z" clip-path="url(#b)" stroke-miterlimit="10" fill="#53606c" stroke="#000" stroke-linecap="round" stroke-linejoin="round"/>
   <path class="st59" d="M399.4 989.3c-6.1 0-9.9-4.3-10-4.3l-.2-.2-.3.1c-3.1 1-6.1 1.5-9 1.5-6.1 0-11.4-2.2-15.6-6.5 1.4-3 2.9-6.1 4.3-9.1.1.1.1.2.2.3 6.1 8 12.7 9.7 17 9.7 3.2 0 5.6-.9 6.6-1.3.7 1.3 3 4.7 7.5 4.7 1.2 0 2.5-.3 3.9-.8 6.7-2.5 15.7-13.1 18.3-22.1 3.2 5.7-2.8 18.3-13.8 25.3-3 1.7-6 2.7-8.9 2.7zm24.5-78.1c-5.7-11.1-10.8-14.2-12.4-14.9 15.7-15.3 34.7-23 56.6-23 1.3 0 2.5 0 3.8.1 2.1.1 4.2.3 6.4.5 1.5 2.7-.4 5.6-.8 6.3-3 .8-11.2 6.5-18.5 11.6-1.9 1.3-3.7 2.6-5.3 3.7-5.3 3.7-13.6 4.2-18 4.2-1.8 0-2.9-.1-2.9-.1h-.3l-8.6 11.6zm95.3 49c4.2-7.1 12.6-15.2 28.3-15.2 3.5 0 7.2.4 11 1.2 3.4.7 7 1.1 10.6 1.1 15.9 0 29.8-7.9 34.8-12.5 6.5-6 10.5-9.8 12-12.4 1.4-2.4 3.2-2.8 4.7-2 .1.1-.7 1.1-.6 1.1-.9 1.7-1.9 3.3-3 4.8-11.5 16.6-23.9 26.9-50 26.9-3.6 0-7.5-.2-11.6-.6-1.5-.2-3-.2-4.4-.2-9.4 0-18.1 3.2-25.9 9.4l-5.9-1.6z" clip-path="url(#b)" fill="#38434f"/>
   <path class="st58" d="M427.4 920.5c-9.1-24.2-19-27.9-32.4-25-13.4 3-22.4 18-21.6 40 .4 10.2-15.5 20.5-4.3 35s23.5 8 23.5 8 3 7.1 11 4.1 16.7-13.5 18.5-21.6" clip-path="url(#b)" stroke-miterlimit="10" fill="#53606c" stroke="#000" stroke-linecap="round" stroke-linejoin="round"/>
   <path class="st59" d="M417.2 934.2c-7.3.5-8.6-4.8-7.3-7 1.2-2.1 4.6-3.2 4.6-3.2s-5.3-.2-6.3-4c-1-3.7 4-5.3 4-5.3s-2.9-8.6-13.3-6.1-14.4 11.7-14.2 19c.6 15.3-10.2 22.8 0 29.7 10.1 6.9 23.7-2.8 28.5-11.3 4.8-8.5 4-11.8 4-11.8z" clip-path="url(#b)" fill="#38434f"/>
   <path class="st57" d="M392.6 978.6c6.3-3.9 9.1-7.5 9.1-7.5m15.5-36.9c-7.3.5-8.6-4.8-7.3-7 1.2-2.1 4.6-3.2 4.6-3.2s-5.3-.2-6.3-4c-1-3.7 4-5.3 4-5.3s-2.9-8.6-13.3-6.1-14.6 11.7-14.2 19" clip-path="url(#b)" stroke-miterlimit="10" fill="none" stroke="#000" stroke-linecap="round" stroke-linejoin="round"/>
   <path d="M417.5 891.4c-9.8-6.9-6.2-16 .3-21.8 6.5-5.8 19-14 35.2-12.2 0 0-.2-3.5-3.1-5.8s-.5-4.5 5.5-4.5 12.9 2.6 15.8 6.9c0 0-1.4-3.2.4-4.4 1.8-1.2 10.2 1 15.6 9s1.1 14.9-5.2 19.9c-6.3 5-36.2 11.6-48.8 10.9" clip-path="url(#b)" fill="#53606c"/>
   <g class="st53" clip-path="url(#b)">
     <path class="st36" d="M459.5 878.7c-11.1.6-22.1 3.3-32.9 6.1-4.1 1.1-8.2 2.2-12.4 2-.4 0-.8-.1-1.3-.1 1 1.6 2.5 3.2 4.6 4.7l15.6-2.1c11.3.7 37-4.7 46.4-9.4-6.5-1.1-13.3-1.5-20-1.2z" fill="#38434f"/>
   </g>
   <path class="st59" d="M417.5 890.8c-3.5-2.5-5.3-5.5-5.5-8.8-.2-3.2 1.2-6.7 4-9.9-.4 1.6-.2 3.2.5 4.7 1.2 2.5 3.6 4 6.3 4 2.1 0 4.3-.9 6.3-2.6 7.2-6 19.4-10.4 29.1-10.4 1.9 0 3.7.2 5.3.5 7.7 1.6 12.3 3.7 13.8 6.7.8 1.6.8 3.3 0 5.4-10.1 4.3-31.2 8.6-42.1 8.6-.7 0-1.4 0-2.1-.1-1.4-.1-2.8-.1-4-.1-7.5-.1-10.6 1.4-11.6 2z" clip-path="url(#b)" fill="#38434f"/>
   <path class="st57" d="M471.2 854c2.2 3.4 1.1 6.7 1.1 6.7" clip-path="url(#b)" stroke-miterlimit="10" fill="none" stroke="#000" stroke-linecap="round" stroke-linejoin="round"/>
   <path d="M489.6 967.9c34.6 23.5 68.7 8.7 80.2-2.4 11.4-11.1 20.8-28.5 20-45.9-.8-17.4-8.5-32.9-19.5-42.8-10.7-9.6-12.4-8.7-13.2-7.7-.8 1-1.4 1.1 5 12.2s13.4 24.6 9.5 40.2c-3.9 15.6-15.6 29.9-29.6 34-14 4-21.6-1.4-26.1-3.2 0 0 1 4-3.4 4.3-4.3.3-11.1-2.9-11.1-2.9s2.7 3 .1 5-5.9-.9-5.9-.9 2.5 2.2 1.5 3.3c-1 1.1-2.3.8-4.2-.6 0 0 3.2 3.6 1 5.5s-4.3 1.9-4.3 1.9z" clip-path="url(#b)" stroke-miterlimit="10" fill="#b3becd" stroke="#000" stroke-width="1.60000002" stroke-linecap="round" stroke-linejoin="round"/>
   <path d="M528.6 979.9c-13.1 0-25.8-3.9-37.6-11.7.9-.2 2.1-.7 3.3-1.8 1.4-1.3 1-3 .3-4.3.4.1.8.2 1.1.2.7 0 1.3-.3 1.8-.8.3-.3.4-.6.4-1 0-.3-.1-.6-.2-.9.6.2 1.2.4 1.9.4.9 0 1.7-.3 2.4-.8.3-.2.5-.5.7-.8 12.6 6.2 22.6 9.1 31.5 9.1 7.8 0 14.7-2.3 21.1-6.9 16.8-12.3 21.3-21.3 24.6-27.9l.3-.6c2.3-4.5 4.2-6.5 6.4-6.5.9 0 1.7.3 2.7.9-1.4 13.6-8.7 28-19.6 38.6-7.9 7.4-23.4 14.8-41.1 14.8z" clip-path="url(#b)" fill="#92a1b5"/>
   <path class="st57" d="M489.6 967.9c-3.9.1-6.7-.9-6.7-.9" clip-path="url(#b)" stroke-miterlimit="10" fill="none" stroke="#000" stroke-linecap="round" stroke-linejoin="round"/>
   <path d="M484 908.3c-2.2.9-2.1 3.2.1 6.7 2.1 3.5 4.5 7.9 5.9 10.3 1.4 2.4 2.6 3.5 4 2.8 1.4-.6 1.8-2 .4-4.9-1.4-2.9-5.8-11-7.2-12.7-1.6-1.7-2.4-2.5-3.2-2.2z" clip-path="url(#b)" stroke-miterlimit="10" fill="#38434f" stroke="#000" stroke-width="1.5" stroke-linecap="round" stroke-linejoin="round"/>
   <path class="st57" d="M525.9 907.8c2.5-3.7 4.8-5.2 4.8-5.2m3.8 11.9c1.5-3.1 3.7-5.6 3.7-5.6m11.9 13.3c1-3.9 2.7-5.6 2.7-5.6m10.7 9c.6-4.6.9-6.6.9-6.6" clip-path="url(#b)" stroke-miterlimit="10" fill="none" stroke="#000" stroke-linecap="round" stroke-linejoin="round"/>
   <g class="st53" clip-path="url(#b)">
     <path class="st49" d="M504.9 862.2c.8-.4 1.5-.8 2.2-1.1" fill="none" stroke="#e3e5e5" stroke-width="3" stroke-linecap="round" stroke-linejoin="round"/>
     <path d="M519.8 856.2c13.6-3.5 22.1.5 28.2 3.3 5.3 2.4 11.6 4.7 17.6 5.3" fill="none" stroke="#e3e5e5" stroke-width="3" stroke-linecap="round" stroke-linejoin="round" stroke-dasharray="4.5286,13.5857"/>
     <path class="st49" d="M572.4 864.5c.8-.2 1.6-.4 2.4-.7" fill="none" stroke="#e3e5e5" stroke-width="3" stroke-linecap="round" stroke-linejoin="round"/>
   </g>
   <g class="st53" clip-path="url(#b)">
     <path d="M491.2 946.7c-4.1 1.1-6.1 1.8-10 3.5-2.1.9-4.6.1-5.6-1.9s0-4.6 2.3-5.6c4.3-1.9 6.6-2.7 11.2-3.9 2.4-.6 4.8.8 5.3 2.9.4 2.2-1 4.4-3.2 5z" fill="#505762"/>
   </g>
   <path class="st57" d="M515.8 952.3c-.2-2.3-1.7-3.3-1.7-3.3" clip-path="url(#b)" stroke-miterlimit="10" fill="none" stroke="#000" stroke-linecap="round" stroke-linejoin="round"/>
   <g class="st53" clip-path="url(#b)">
     <path d="M454.5 887.5c-3.5.7-7.1 1.3-10.6 1.7-3.6.4-7.2.8-10.8.6-.3 0-.5-.2-.5-.5s.2-.5.5-.5c3.5.2 7.1-.1 10.6-.4 3.5-.4 7.1-.9 10.6-1.6.2 0 .4.1.4.3.1.2 0 .4-.2.4z"/>
   </g>
   <g class="st53" clip-path="url(#b)">
     <path d="M417.2 891.8c-2.2-1.6-4.3-3.6-5.4-6.2l-.4-1-.2-1-.1-.5v-.5c0-.4-.1-.7-.1-1.1 0-1.4.2-2.8.7-4.1.9-2.6 2.6-4.9 4.4-6.9 1.9-2 4-3.6 6.2-5.2s4.6-2.9 7-4.1c2.4-1.2 5-2.2 7.6-2.9 5.2-1.5 10.7-1.9 16.1-1.4l-.6.5c-.2-1.3-.7-2.7-1.4-3.8-.4-.6-.8-1.1-1.4-1.5-.5-.5-1.2-1-1.5-1.9-.1-.2-.1-.5-.1-.7.1-.2.1-.5.2-.7.2-.4.6-.7.9-.9.7-.5 1.4-.7 2.2-.9 1.5-.3 3-.4 4.4-.4 2.9.1 5.9.7 8.6 1.8 2.7 1.1 5.3 2.8 7.1 5.3l-.9.5c-.3-.7-.5-1.3-.5-2.1-.1-.7 0-1.5.4-2.3.3-.3.5-.7 1-.8.2-.1.4-.1.6-.2.2 0 .4-.1.6-.1.7 0 1.4.1 2.1.2 1.4.3 2.6.8 3.9 1.4 1.2.6 2.4 1.3 3.5 2.1 2.2 1.6 4.1 3.6 5.6 5.9.7 1.2 1.4 2.4 1.8 3.7.3.6.4 1.3.5 2 .1.3.1.7.1 1v1c-.1 2.8-1.3 5.5-3 7.6-1.7 2.2-3.6 4-5.9 5.6-2.4 1.4-4.9 2.3-7.4 3.2-2.5.8-5.1 1.5-7.8 1.9 1.2-.5 2.5-.9 3.7-1.4l3.7-1.3c2.5-.9 5-1.8 7.2-3.2 2.1-1.5 4-3.3 5.6-5.4 1.5-2.1 2.6-4.5 2.7-7 .1-2.5-.8-5-2.2-7.1-1.4-2.2-3.2-4.1-5.3-5.6-2.1-1.5-4.4-2.8-6.9-3.4-.6-.1-1.2-.2-1.8-.2-.6 0-1 .1-1.3.5-.5.8-.2 2.3.2 3.4.1.3 0 .5-.3.6-.2.1-.4 0-.6-.2-1.6-2.3-4-3.8-6.6-4.9-2.6-1.1-5.4-1.7-8.2-1.7-1.4 0-2.8.1-4.2.4-.7.2-1.3.4-1.8.7-.5.4-.8.8-.7 1.3.1.5.6.9 1.2 1.4.6.5 1.1 1.1 1.5 1.7.9 1.3 1.4 2.7 1.6 4.3 0 .3-.2.5-.4.5h-.1c-5.3-.5-10.7-.1-15.8 1.4-2.5.7-5 1.7-7.4 2.8-2.4 1.2-4.7 2.5-6.8 4.1-2.2 1.5-4.3 3.2-6.1 5.1-1.8 1.9-3.4 4.1-4.2 6.5-.4 1.2-.6 2.5-.7 3.8 0 .3.1.6.1 1v.5l.1.5.2.9.4.9c1 2.4 2.9 4.3 5 5.8.2.2.3.5.1.7-.2.2-.4.3-.7.1z"/>
   </g>
   <g class="st53" clip-path="url(#b)">
     <path class="st36" d="M615.1 863.2c2 1.2 2.3 1.8 2.3 1.8" fill="#38434f"/>
     <path d="M615.3 862.9l1.2.9c.2.2.4.3.6.5.2.2.3.4.5.6 0 .1 0 .2-.1.2h-.2l-.5-.5c-.2-.1-.4-.3-.6-.4-.4-.3-.8-.5-1.3-.7-.2-.1-.2-.3-.1-.5s.2-.2.5-.1c-.1 0-.1 0 0 0z"/>
   </g>
 </g>

 <g id="avatar" transform="translate(80,320) scale(3) translate(0,-60)">
  <path id="stiel" d="M -20, 50 L 10, 50" />
  <path id="rahmen" d="M 3, 60 L 3,3 L 206,60 L 3,117 L 3,60" />
  <text x="10" y="74">DS 100</text>
 </g>
 <g id="headline">
  <text x="400" y="200">Bahn-Abkürzungen</text>
 </g>

</svg>
